<svg width="51" height="34" viewBox="0 0 51 34" fill="none" xmlns="http://www.w3.org/2000/svg">
    <path d="M37.1818 0.439998C39.7018 0.439998 41.9818 0.959997 44.0218 2C46.0618 3 47.6618 4.56 48.8218 6.68C50.0218 8.8 50.6218 11.54 50.6218 14.9V33.5H39.2218V16.76C39.2218 14.44 38.7418 12.76 37.7818 11.72C36.8618 10.64 35.5618 10.1 33.8818 10.1C32.6818 10.1 31.5818 10.38 30.5818 10.94C29.5818 11.46 28.8018 12.28 28.2418 13.4C27.6818 14.52 27.4018 15.98 27.4018 17.78V33.5H16.0018V0.979994H26.8618V10.22L24.7618 7.52C26.0018 5.16 27.7018 3.4 29.8618 2.24C32.0218 1.04 34.4618 0.439998 37.1818 0.439998Z" fill="url(#paint0_linear_0_1)"/>
    <rect y="21" width="12.5" height="12.5" fill="url(#paint1_linear_0_1)"/>
    <defs>
        <linearGradient id="paint0_linear_0_1" x1="26" y1="-38.5" x2="26" y2="61.5" gradientUnits="userSpaceOnUse">
            <stop stop-color="#1DB2FF"/>
            <stop offset="1" stop-color="#229ED9"/>
        </linearGradient>
        <linearGradient id="paint1_linear_0_1" x1="6.25" y1="21" x2="6.25" y2="33.5" gradientUnits="userSpaceOnUse">
            <stop stop-color="#1DB2FF"/>
            <stop offset="1" stop-color="#229ED9"/>
        </linearGradient>
    </defs>
</svg>
