<svg xmlns="http://www.w3.org/2000/svg" xmlns:xlink="http://www.w3.org/1999/xlink" viewBox="0 0 512 512" width="512" height="512" style="width: 100%; height: 100%; transform: translate3d(0,0,0); content-visibility: visible;" preserveAspectRatio="xMidYMid meet"><defs><clipPath id="__lottie_element_2"><rect width="512" height="512" x="0" y="0"></rect></clipPath><linearGradient id="__lottie_element_6" spreadMethod="pad" gradientUnits="userSpaceOnUse" x1="-144" y1="20" x2="-162.20700073242188" y2="55.86199951171875"><stop offset="0%" stop-color="rgb(41,132,53)"></stop><stop offset="50%" stop-color="rgb(44,159,57)"></stop><stop offset="100%" stop-color="rgb(46,185,61)"></stop></linearGradient><linearGradient id="__lottie_element_7" spreadMethod="pad" gradientUnits="userSpaceOnUse" x1="-149" y1="121" x2="-117.9749984741211" y2="105.14299774169922"><stop offset="0%" stop-color="rgb(0,123,5)"></stop><stop offset="50%" stop-color="rgb(0,158,6)"></stop><stop offset="100%" stop-color="rgb(0,193,8)"></stop></linearGradient><linearGradient id="__lottie_element_8" spreadMethod="pad" gradientUnits="userSpaceOnUse" x1="140" y1="23" x2="160.41400146484375" y2="63.2760009765625"><stop offset="0%" stop-color="rgb(41,132,53)"></stop><stop offset="50%" stop-color="rgb(44,159,57)"></stop><stop offset="100%" stop-color="rgb(46,185,61)"></stop></linearGradient><linearGradient id="__lottie_element_9" spreadMethod="pad" gradientUnits="userSpaceOnUse" x1="-34" y1="-134" x2="-34" y2="-190.83799743652344"><stop offset="0%" stop-color="rgb(41,132,53)"></stop><stop offset="50%" stop-color="rgb(34,113,45)"></stop><stop offset="100%" stop-color="rgb(28,95,37)"></stop></linearGradient><linearGradient id="__lottie_element_10" spreadMethod="pad" gradientUnits="userSpaceOnUse" x1="44" y1="-195" x2="44" y2="-151.5590057373047"><stop offset="0%" stop-color="rgb(111,230,117)"></stop><stop offset="50%" stop-color="rgb(56,211,62)"></stop><stop offset="100%" stop-color="rgb(0,193,8)"></stop></linearGradient><linearGradient id="__lottie_element_11" spreadMethod="pad" gradientUnits="userSpaceOnUse" x1="147" y1="134" x2="115.89399719238281" y2="116.2249984741211"><stop offset="0%" stop-color="rgb(0,123,5)"></stop><stop offset="50%" stop-color="rgb(0,158,6)"></stop><stop offset="100%" stop-color="rgb(0,193,8)"></stop></linearGradient></defs><g clip-path="url(#__lottie_element_2)"><g style="display: block;" transform="matrix(1,0,0,1,256,256)" opacity="1"><g opacity="1" transform="matrix(1,0,0,1,0,0)"><g opacity="1" transform="matrix(1,0,0,1,0,0)"><path fill="url(#__lottie_element_6)" fill-opacity="1" d=" M-136.44700622558594,115.05500030517578 C-136.44700622558594,115.05500030517578 -75.89700317382812,10.178999900817871 -75.89700317382812,10.178999900817871 C-75.89700317382812,10.178999900817871 -53.409000396728516,23.163000106811523 -53.409000396728516,23.163000106811523 C-53.409000396728516,23.163000106811523 -100.00199890136719,-58.61399841308594 -100.00199890136719,-58.61399841308594 C-100.00199890136719,-58.61399841308594 -194.11900329589844,-58.07699966430664 -194.11900329589844,-58.07699966430664 C-194.11900329589844,-58.07699966430664 -171.1320037841797,-44.80500030517578 -171.1320037841797,-44.80500030517578 C-171.1320037841797,-44.80500030517578 -197.51699829101562,0.8970000147819519 -197.51699829101562,0.8970000147819519 C-204.71400451660156,13.362000465393066 -204.77699279785156,28.70400047302246 -197.68299865722656,41.22800064086914 C-197.68299865722656,41.22800064086914 -138.5659942626953,145.58900451660156 -138.5659942626953,145.58900451660156 C-142.94500732421875,136.14199829101562 -141.6529998779297,124.0719985961914 -136.44700622558594,115.05500030517578z"></path></g><g opacity="1" transform="matrix(1,0,0,1,0,0)"><path fill="url(#__lottie_element_7)" fill-opacity="1" d=" M-99.01899719238281,168.48699951171875 C-99.01899719238281,168.48699951171875 -35.23500061035156,168.1230010986328 -35.23500061035156,168.1230010986328 C-35.23500061035156,168.1230010986328 -35.867000579833984,58.520999908447266 -35.867000579833984,58.520999908447266 C-35.867000579833984,58.520999908447266 -161.44700622558594,59.237998962402344 -161.44700622558594,59.237998962402344 C-177.8040008544922,59.33100128173828 -189.8350067138672,55.02399826049805 -197.89700317382812,40.79199981689453 C-197.89700317382812,40.79199981689453 -186.04400634765625,61.77399826049805 -186.04400634765625,61.77399826049805 C-186.04400634765625,61.77399826049805 -186.04400634765625,61.77399826049805 -186.04400634765625,61.77399826049805 C-186.04400634765625,61.77399826049805 -138.5659942626953,145.58900451660156 -138.5659942626953,145.58900451660156 C-130.50399780273438,159.8209991455078 -115.3759994506836,168.5800018310547 -99.01899719238281,168.48699951171875z"></path></g><g opacity="1" transform="matrix(1,0,0,1,0,0)"><path fill="url(#__lottie_element_8)" fill-opacity="1" d=" M196.77999877929688,-0.609000027179718 C196.77999877929688,-0.609000027179718 164.57200622558594,-55.66600036621094 164.57200622558594,-55.66600036621094 C164.57200622558594,-55.66600036621094 69.97000122070312,-0.3179999887943268 69.97000122070312,-0.3179999887943268 C69.97000122070312,-0.3179999887943268 133.3820037841797,108.0790023803711 133.3820037841797,108.0790023803711 C141.64100646972656,122.1969985961914 143.927001953125,134.77099609375 135.6320037841797,148.86900329589844 C135.6320037841797,148.86900329589844 147.8769989013672,128.11300659179688 147.8769989013672,128.11300659179688 C147.8769989013672,128.11300659179688 147.8769989013672,128.11300659179688 147.8769989013672,128.11300659179688 C147.8769989013672,128.11300659179688 196.72300720214844,45.0890007019043 196.72300720214844,45.0890007019043 C205.01699829101562,30.990999221801758 205.03900146484375,13.510000228881836 196.77999877929688,-0.609000027179718z"></path></g><g opacity="1" transform="matrix(1,0,0,1,0,0)"><path fill="url(#__lottie_element_9)" fill-opacity="1" d=" M-97.56099700927734,-172.2310028076172 C-97.56099700927734,-172.2310028076172 -129.13800048828125,-116.80999755859375 -129.13800048828125,-116.80999755859375 C-129.13800048828125,-116.80999755859375 -33.90399932861328,-62.555999755859375 -33.90399932861328,-62.555999755859375 C-33.90399932861328,-62.555999755859375 28.264999389648438,-171.6699981689453 28.264999389648438,-171.6699981689453 C36.36199951171875,-185.8820037841797 46.10900115966797,-194.1479949951172 62.46500015258789,-194.01400756835938 C62.46500015258789,-194.01400756835938 38.367000579833984,-194.24000549316406 38.367000579833984,-194.24000549316406 C38.367000579833984,-194.24000549316406 38.367000579833984,-194.24000549316406 38.367000579833984,-194.24000549316406 C38.367000579833984,-194.24000549316406 -57.957000732421875,-195.031005859375 -57.957000732421875,-195.031005859375 C-74.31300354003906,-195.1649932861328 -89.46399688720703,-186.4429931640625 -97.56099700927734,-172.2310028076172z"></path></g><g opacity="1" transform="matrix(1,0,0,1,0,0)"><path fill="url(#__lottie_element_10)" fill-opacity="1" d=" M-32.573001861572266,-177.92799377441406 C-32.573001861572266,-177.92799377441406 27.976999282836914,-73.052001953125 27.976999282836914,-73.052001953125 C27.976999282836914,-73.052001953125 5.48799991607666,-60.069000244140625 5.48799991607666,-60.069000244140625 C5.48799991607666,-60.069000244140625 99.60600280761719,-59.53099822998047 99.60600280761719,-59.53099822998047 C99.60600280761719,-59.53099822998047 146.19900512695312,-141.30799865722656 146.19900512695312,-141.30799865722656 C146.19900512695312,-141.30799865722656 123.21099853515625,-128.03599548339844 123.21099853515625,-128.03599548339844 C123.21099853515625,-128.03599548339844 96.82599639892578,-173.73699951171875 96.82599639892578,-173.73699951171875 C89.62899780273438,-186.20199584960938 76.37300109863281,-193.92799377441406 61.97999954223633,-194.04600524902344 C61.97999954223633,-194.04600524902344 -57.957000732421875,-195.031005859375 -57.957000732421875,-195.031005859375 C-47.58700180053711,-194.10000610351562 -37.77899932861328,-186.94500732421875 -32.573001861572266,-177.92799377441406z"></path></g><g opacity="1" transform="matrix(1,0,0,1,0,0)"><path fill="url(#__lottie_element_11)" fill-opacity="1" d=" M169.22000122070312,58.520999908447266 C169.22000122070312,58.520999908447266 48.119998931884766,58.520999908447266 48.119998931884766,58.520999908447266 C48.119998931884766,58.520999908447266 48.119998931884766,32.553001403808594 48.119998931884766,32.553001403808594 C48.119998931884766,32.553001403808594 0.5960000157356262,113.79299926757812 0.5960000157356262,113.79299926757812 C0.5960000157356262,113.79299926757812 48.119998931884766,195.03199768066406 48.119998931884766,195.03199768066406 C48.119998931884766,195.03199768066406 48.119998931884766,168.48800659179688 48.119998931884766,168.48800659179688 C48.119998931884766,168.48800659179688 100.89199829101562,168.48800659179688 100.89199829101562,168.48800659179688 C115.28600311279297,168.48800659179688 128.60400390625,160.8719940185547 135.9029998779297,148.46600341796875 C135.9029998779297,148.46600341796875 196.72300720214844,45.0890007019043 196.72300720214844,45.0890007019043 C190.73199462890625,53.60499954223633 179.6320037841797,58.520999908447266 169.22000122070312,58.520999908447266z"></path></g></g><g opacity="1" transform="matrix(1,0,0,1,0,0)"><g opacity="1" transform="matrix(1,0,0,1,0,0)"><path stroke-linecap="round" stroke-linejoin="round" fill-opacity="0" stroke="rgb(57,255,51)" stroke-opacity="1" stroke-width="8" d=" M-62.5880012512207,17.045000076293945 C-62.5880012512207,17.045000076293945 -102.60299682617188,-53.279998779296875 -102.60299682617188,-53.279998779296875 C-102.60299682617188,-53.279998779296875 -180.9949951171875,-52.742000579833984 -180.9949951171875,-52.742000579833984"></path></g><g opacity="1" transform="matrix(1,0,0,1,0,0)"><path stroke-linecap="round" stroke-linejoin="round" fill-opacity="0" stroke="rgb(57,255,51)" stroke-opacity="1" stroke-width="8" d=" M-75.85199737548828,-191.49000549316406 C-83.4020004272461,-184.53500366210938 -86.96499633789062,-179.7779998779297 -95.06199645996094,-165.5659942626953 C-95.06199645996094,-165.5659942626953 -122.4000015258789,-117.58300018310547 -122.4000015258789,-117.58300018310547"></path></g><g opacity="1" transform="matrix(1,0,0,1,0,0)"><path stroke-linecap="round" stroke-linejoin="round" fill-opacity="0" stroke="rgb(93,255,80)" stroke-opacity="1" stroke-width="8" d=" M138.78799438476562,-130.36399841308594 C138.78799438476562,-130.36399841308594 119.95899963378906,-121.37100219726562 119.95899963378906,-121.37100219726562 C119.95899963378906,-121.37100219726562 92.25299835205078,-170.40699768066406 92.25299835205078,-170.40699768066406 C85.05599975585938,-182.8719940185547 73.12100219726562,-188.46600341796875 58.72800064086914,-188.58399963378906 C58.72800064086914,-188.58399963378906 -25.922000885009766,-189.5679931640625 -43.305999755859375,-189.5679931640625"></path></g><g opacity="1" transform="matrix(1,0,0,1,0,0)"><path stroke-linecap="round" stroke-linejoin="round" fill-opacity="0" stroke="rgb(57,255,51)" stroke-opacity="1" stroke-width="8" d=" M17.97599983215332,-60.612998962402344 C17.97599983215332,-60.612998962402344 25.698999404907227,-65.0719985961914 25.698999404907227,-65.0719985961914 C28.954999923706055,-67.47100067138672 29.5310001373291,-70.36000061035156 27.976999282836914,-73.052001953125"></path></g><g opacity="1" transform="matrix(1,0,0,1,0,0)"><path stroke-linecap="round" stroke-linejoin="round" fill-opacity="0" stroke="rgb(57,255,51)" stroke-opacity="1" stroke-width="8" d=" M-35.867000579833984,64.0999984741211 C-35.867000579833984,64.0999984741211 -161.44700622558594,64.81700134277344 -161.44700622558594,64.81700134277344 C-177.8040008544922,64.91000366210938 -186.94200134277344,56.84700012207031 -194.07400512695312,46.45399856567383 C-201.20599365234375,36.06100082397461 -203.6510009765625,20.83300018310547 -196.45399475097656,8.368000030517578 C-196.45399475097656,8.368000030517578 -170.06900024414062,-37.33300018310547 -170.06900024414062,-37.33300018310547 C-168.24400329589844,-40.551998138427734 -171.1320037841797,-44.80500030517578 -171.1320037841797,-44.80500030517578"></path></g><g opacity="1" transform="matrix(1,0,0,1,0,0)"><path stroke-linecap="round" stroke-linejoin="round" fill-opacity="0" stroke="rgb(57,255,51)" stroke-opacity="1" stroke-width="8" d=" M76.37999725341797,2.5980000495910645 C76.37999725341797,2.5980000495910645 162.79200744628906,-48.683998107910156 162.79200744628906,-48.683998107910156 C162.79200744628906,-48.683998107910156 195,6.373000144958496 195,6.373000144958496 C199.24899291992188,13.63700008392334 205.38400268554688,24.53499984741211 199.7449951171875,38.92100143432617 C193.97500610351562,53.641998291015625 179.6320037841797,64.15599822998047 169.22000122070312,64.15599822998047 C169.22000122070312,64.15599822998047 48.119998931884766,64.15599822998047 48.119998931884766,64.15599822998047 C48.119998931884766,64.15599822998047 48.119998931884766,41.51900100708008 48.119998931884766,41.51900100708008 C48.119998931884766,41.51900100708008 4.26200008392334,116.61199951171875 4.26200008392334,116.61199951171875"></path></g></g><g opacity="1" transform="matrix(1,0,0,1,0,0)"><g opacity="1" transform="matrix(1,0,0,1,0,0)"><path stroke-linecap="round" stroke-linejoin="round" fill-opacity="0" stroke="rgb(48,89,0)" stroke-opacity="1" stroke-width="8" d=" M-104.03199768066406,58.90999984741211 C-104.03199768066406,58.90999984741211 -75.89700317382812,10.178999900817871 -75.89700317382812,10.178999900817871 C-75.89700317382812,10.178999900817871 -53.409000396728516,23.163000106811523 -53.409000396728516,23.163000106811523 C-53.409000396728516,23.163000106811523 -100.00199890136719,-58.61399841308594 -100.00199890136719,-58.61399841308594 C-100.00199890136719,-58.61399841308594 -194.11900329589844,-58.07699966430664 -194.11900329589844,-58.07699966430664 C-194.11900329589844,-58.07699966430664 -171.1320037841797,-44.80500030517578 -171.1320037841797,-44.80500030517578 C-171.1320037841797,-44.80500030517578 -197.51699829101562,0.8970000147819519 -197.51699829101562,0.8970000147819519 C-204.71400451660156,13.362000465393066 -204.77699279785156,28.70400047302246 -197.68299865722656,41.22800064086914"></path></g><g opacity="1" transform="matrix(1,0,0,1,0,0)"><path stroke-linecap="round" stroke-linejoin="round" fill-opacity="0" stroke="rgb(48,89,0)" stroke-opacity="1" stroke-width="8" d=" M-99.01899719238281,168.48699951171875 C-99.01899719238281,168.48699951171875 -35.23500061035156,168.1230010986328 -35.23500061035156,168.1230010986328 C-35.23500061035156,168.1230010986328 -35.867000579833984,58.520999908447266 -35.867000579833984,58.520999908447266 C-35.867000579833984,58.520999908447266 -161.44700622558594,59.237998962402344 -161.44700622558594,59.237998962402344 C-177.8040008544922,59.33100128173828 -189.8350067138672,55.02399826049805 -197.89700317382812,40.79199981689453 C-197.89700317382812,40.79199981689453 -186.04400634765625,61.77399826049805 -186.04400634765625,61.77399826049805 C-186.04400634765625,61.77399826049805 -186.04400634765625,61.77399826049805 -186.04400634765625,61.77399826049805 C-186.04400634765625,61.77399826049805 -138.5659942626953,145.58900451660156 -138.5659942626953,145.58900451660156 C-130.50399780273438,159.8209991455078 -115.3759994506836,168.5800018310547 -99.01899719238281,168.48699951171875z"></path></g><g opacity="1" transform="matrix(1,0,0,1,0,0)"><path stroke-linecap="round" stroke-linejoin="round" fill-opacity="0" stroke="rgb(48,89,0)" stroke-opacity="1" stroke-width="8" d=" M196.72300720214844,45.0890007019043 C205.01699829101562,30.990999221801758 205.03900146484375,13.510000228881836 196.77999877929688,-0.609000027179718 C196.77999877929688,-0.609000027179718 164.57200622558594,-55.66600036621094 164.57200622558594,-55.66600036621094 C164.57200622558594,-55.66600036621094 69.97000122070312,-0.3179999887943268 69.97000122070312,-0.3179999887943268 C69.97000122070312,-0.3179999887943268 104.38999938964844,58.520999908447266 104.38999938964844,58.520999908447266"></path></g><g opacity="1" transform="matrix(1,0,0,1,0,0)"><path stroke-linecap="round" stroke-linejoin="round" fill-opacity="0" stroke="rgb(48,89,0)" stroke-opacity="1" stroke-width="8" d=" M-57.957000732421875,-195.031005859375 C-74.31300354003906,-195.1649932861328 -89.46399688720703,-186.4429931640625 -97.56099700927734,-172.2310028076172 C-97.56099700927734,-172.2310028076172 -129.13800048828125,-116.80999755859375 -129.13800048828125,-116.80999755859375 C-129.13800048828125,-116.80999755859375 -33.90399932861328,-62.555999755859375 -33.90399932861328,-62.555999755859375 C-33.90399932861328,-62.555999755859375 -0.15800000727176666,-121.78399658203125 -0.15800000727176666,-121.78399658203125"></path></g><g opacity="1" transform="matrix(1,0,0,1,0,0)"><path stroke-linecap="round" stroke-linejoin="round" fill-opacity="0" stroke="rgb(48,89,0)" stroke-opacity="1" stroke-width="8" d=" M-32.573001861572266,-177.92799377441406 C-32.573001861572266,-177.92799377441406 27.976999282836914,-73.052001953125 27.976999282836914,-73.052001953125 C27.976999282836914,-73.052001953125 5.48799991607666,-60.069000244140625 5.48799991607666,-60.069000244140625 C5.48799991607666,-60.069000244140625 99.60600280761719,-59.53099822998047 99.60600280761719,-59.53099822998047 C99.60600280761719,-59.53099822998047 146.19900512695312,-141.30799865722656 146.19900512695312,-141.30799865722656 C146.19900512695312,-141.30799865722656 123.21099853515625,-128.03599548339844 123.21099853515625,-128.03599548339844 C123.21099853515625,-128.03599548339844 96.82599639892578,-173.73699951171875 96.82599639892578,-173.73699951171875 C89.62899780273438,-186.20199584960938 76.37300109863281,-193.92799377441406 61.97999954223633,-194.04600524902344 C61.97999954223633,-194.04600524902344 -57.957000732421875,-195.031005859375 -57.957000732421875,-195.031005859375 C-47.58700180053711,-194.10000610351562 -37.77899932861328,-186.94500732421875 -32.573001861572266,-177.92799377441406z"></path></g><g opacity="1" transform="matrix(1,0,0,1,0,0)"><path stroke-linecap="round" stroke-linejoin="round" fill-opacity="0" stroke="rgb(48,89,0)" stroke-opacity="1" stroke-width="8" d=" M169.22000122070312,58.520999908447266 C169.22000122070312,58.520999908447266 48.119998931884766,58.520999908447266 48.119998931884766,58.520999908447266 C48.119998931884766,58.520999908447266 48.119998931884766,32.553001403808594 48.119998931884766,32.553001403808594 C48.119998931884766,32.553001403808594 0.5960000157356262,113.79299926757812 0.5960000157356262,113.79299926757812 C0.5960000157356262,113.79299926757812 48.119998931884766,195.03199768066406 48.119998931884766,195.03199768066406 C48.119998931884766,195.03199768066406 48.119998931884766,168.48800659179688 48.119998931884766,168.48800659179688 C48.119998931884766,168.48800659179688 100.89199829101562,168.48800659179688 100.89199829101562,168.48800659179688 C115.28600311279297,168.48800659179688 128.60400390625,160.8719940185547 135.9029998779297,148.46600341796875 C135.9029998779297,148.46600341796875 196.72300720214844,45.0890007019043 196.72300720214844,45.0890007019043 C190.73199462890625,53.60499954223633 179.6320037841797,58.520999908447266 169.22000122070312,58.520999908447266z"></path></g></g></g></g></svg>