<svg width="80" height="80" viewBox="0 0 80 80" fill="none" xmlns="http://www.w3.org/2000/svg">
    <path d="M40 0C29.3938 0 19.2125 4.21688 11.7188 11.7156C4.21875 19.2144 0 29.3956 0 40C0 50.6044 4.21875 60.7856 11.7188 68.2844C19.2125 75.7831 29.3938 80 40 80C50.6063 80 60.7875 75.7831 68.2812 68.2844C75.7812 60.7856 80 50.6044 80 40C80 29.3956 75.7812 19.2144 68.2812 11.7156C60.7875 4.21688 50.6063 0 40 0Z" fill="url(#paint0_linear_1_8)"/>
    <path d="M46.3864 27.205C48.2763 27.205 49.9863 27.595 51.5163 28.375C53.0463 29.125 54.2464 30.295 55.1163 31.885C56.0163 33.475 56.4663 35.53 56.4663 38.05V52H47.9163V39.445C47.9163 37.705 47.5563 36.445 46.8363 35.665C46.1463 34.855 45.1713 34.45 43.9113 34.45C43.0113 34.45 42.1863 34.66 41.4363 35.08C40.6863 35.47 40.1013 36.085 39.6813 36.925C39.2613 37.765 39.0513 38.86 39.0513 40.21V52H30.5013V27.61H38.6463V34.54L37.0713 32.515C38.0013 30.745 39.2763 29.425 40.8964 28.555C42.5163 27.655 44.3463 27.205 46.3864 27.205Z" fill="white"/>
    <rect x="17" y="42" width="10" height="10" fill="white"/>
    <defs>
        <linearGradient id="paint0_linear_1_8" x1="40" y1="0" x2="40" y2="80" gradientUnits="userSpaceOnUse">
            <stop stop-color="#1DB2FF"/>
            <stop offset="1" stop-color="#229ED9"/>
        </linearGradient>
    </defs>
</svg>
