<svg width="59" height="17" viewBox="0 0 59 17" fill="none" xmlns="http://www.w3.org/2000/svg">
    <path d="M1.31182 11C1.71182 10.6 2.19515 10.4 2.76182 10.4C3.32848 10.4 3.81182 10.6 4.21182 11C4.61182 11.4 4.81182 11.8833 4.81182 12.45C4.81182 13.0167 4.61182 13.5 4.21182 13.9C3.81182 14.2833 3.32848 14.475 2.76182 14.475C2.19515 14.475 1.71182 14.2833 1.31182 13.9C0.928485 13.5 0.736818 13.0167 0.736818 12.45C0.736818 11.8833 0.928485 11.4 1.31182 11ZM14.0188 11.2L14.6188 5.625C14.6188 5.175 14.5022 4.8 14.2688 4.5C14.0355 4.2 13.6438 4.05 13.0938 4.05C12.5605 4.05 12.1022 4.29167 11.7188 4.775C11.3522 5.24167 11.1188 5.83333 11.0188 6.55C10.4188 11.1167 10.1022 13.6 10.0688 14H6.69385L8.06885 2.225C8.76885 2.04167 9.30218 1.95 9.66885 1.95C10.7855 1.95 11.3688 2.35833 11.4188 3.175C12.2355 2.375 13.2105 1.975 14.3438 1.975C15.4938 1.975 16.3938 2.25833 17.0438 2.825C17.6938 3.39167 18.0188 4.10833 18.0188 4.975C18.0188 5.20833 17.9688 5.65 17.8688 6.3C17.4855 8.83333 17.2938 10.3083 17.2938 10.725C17.2938 11.4917 17.5522 11.875 18.0688 11.875C19.2022 11.875 20.0605 10.6917 20.6438 8.325C21.2105 8.925 21.5522 9.4 21.6688 9.75C20.7855 12.6833 19.2522 14.15 17.0688 14.15C16.0355 14.15 15.2688 13.8333 14.7688 13.2C14.2688 12.5667 14.0188 11.9 14.0188 11.2ZM23.2577 8.4C24.291 8.18333 25.0577 7.76667 25.5577 7.15C26.0744 6.53333 26.3327 5.94167 26.3327 5.375C26.3327 4.79167 26.1744 4.4 25.8577 4.2C25.5577 3.98333 25.2244 3.875 24.8577 3.875C24.0744 3.875 23.3827 4.31667 22.7827 5.2C22.1994 6.06667 21.9077 7.10833 21.9077 8.325C21.9077 9.525 22.191 10.425 22.7577 11.025C23.341 11.6083 24.0577 11.9 24.9077 11.9C26.1577 11.9 27.3577 11.4667 28.5077 10.6C29.6577 9.73333 30.591 8.6 31.3077 7.2C31.6744 7.55 32.0077 7.98333 32.3077 8.5C31.7577 9.75 30.7827 10.975 29.3827 12.175C28.6827 12.7583 27.8494 13.2333 26.8827 13.6C25.9327 13.9667 24.9494 14.15 23.9327 14.15C22.266 14.15 20.9494 13.6417 19.9827 12.625C18.9494 11.525 18.4327 10.1167 18.4327 8.4C18.4327 6.68333 19.0744 5.18333 20.3577 3.9C21.6577 2.61667 23.2077 1.975 25.0077 1.975C26.291 1.975 27.3327 2.25833 28.1327 2.825C28.9327 3.375 29.341 4.125 29.3577 5.075C29.3577 6.35833 28.841 7.4 27.8077 8.2C26.791 9 25.391 9.55833 23.6077 9.875L23.2577 8.4ZM39.1032 10.025C39.1032 11.225 39.6116 11.825 40.6282 11.825C40.6616 11.825 40.6866 11.825 40.7032 11.825C41.1699 11.825 41.5866 11.575 41.9532 11.075C42.3199 10.575 42.5949 9.95 42.7782 9.2C43.1782 7.66667 43.3782 6.275 43.3782 5.025H43.1532C42.4532 5.025 41.9116 4.86667 41.5282 4.55C41.1282 4.18333 40.9282 3.74167 40.9282 3.225C40.9282 2.70833 41.0866 2.29167 41.4032 1.975C41.7866 1.625 42.2616 1.45 42.8282 1.45C44.0616 1.45 44.8949 2.08333 45.3282 3.35C46.4949 3.06667 47.7282 2.675 49.0282 2.175V3.6C47.7949 4.06667 46.6449 4.425 45.5782 4.675C45.5949 4.80833 45.6032 5 45.6032 5.25C45.5366 8.7 44.7282 11.2 43.1782 12.75C42.2616 13.6667 41.0699 14.125 39.6032 14.125C38.1532 14.125 37.0699 13.5083 36.3532 12.275C35.5366 13.525 34.2866 14.15 32.6032 14.15C31.6032 14.15 30.7782 13.8 30.1282 13.1C29.4949 12.3833 29.1782 11.5417 29.1782 10.575C29.1782 10.4083 29.1866 10.2083 29.2032 9.975C29.5532 7.075 29.8449 4.50833 30.0782 2.275C30.6782 2.075 31.2032 1.975 31.6532 1.975C32.8366 1.975 33.4282 2.38333 33.4282 3.2C33.4282 3.51667 33.3032 4.60833 33.0532 6.475C32.7366 8.825 32.5782 10.15 32.5782 10.45C32.5782 10.7333 32.6866 11.0167 32.9032 11.3C33.1366 11.5833 33.4616 11.725 33.8782 11.725C34.3116 11.725 34.6949 11.5333 35.0282 11.15C35.3616 10.7667 35.6032 10.3 35.7532 9.75L36.6282 2.275C37.1616 2.075 37.7282 1.975 38.3282 1.975C39.4116 1.975 39.9532 2.38333 39.9532 3.2C39.9532 3.5 39.8366 4.475 39.6032 6.125C39.2699 8.45833 39.1032 9.75833 39.1032 10.025ZM42.3532 3.225C42.3532 3.50833 42.5949 3.65 43.0782 3.65C43.1282 3.65 43.1782 3.65 43.2282 3.65C43.1116 3.2 42.9366 2.975 42.7032 2.975C42.4699 2.975 42.3532 3.05833 42.3532 3.225ZM56.172 6.35C57.4886 7.31667 58.147 8.45833 58.147 9.775C58.147 11.0917 57.6303 12.15 56.597 12.95C55.5636 13.75 54.2636 14.15 52.697 14.15C51.6803 14.15 50.8303 13.9 50.147 13.4C49.4803 12.8833 49.147 12.25 49.147 11.5C49.147 10.75 49.397 10.1583 49.897 9.725C50.397 9.275 51.022 9 51.772 8.9C51.422 9.4 51.247 9.88333 51.247 10.35C51.247 10.8 51.4053 11.1667 51.722 11.45C52.0386 11.7333 52.4386 11.875 52.922 11.875C53.4053 11.875 53.8053 11.7 54.122 11.35C54.4386 10.9833 54.597 10.5667 54.597 10.1C54.597 9.33333 54.2386 8.65 53.522 8.05C53.0886 7.7 52.622 7.375 52.122 7.075C51.622 6.75833 51.3553 6.59167 51.322 6.575C51.2553 6.525 51.1886 6.48333 51.122 6.45C50.822 6.8 50.3886 7.28333 49.822 7.9C49.2553 8.5 48.8053 8.98333 48.472 9.35C47.5386 10.3667 47.0136 11.2167 46.897 11.9C46.8636 12.0333 46.847 12.2917 46.847 12.675C46.847 13.0417 46.9553 13.425 47.172 13.825C47.4053 14.225 47.6803 14.525 47.997 14.725C48.3136 14.925 48.622 15.0833 48.922 15.2C49.2386 15.3333 49.5053 15.425 49.722 15.475C49.9553 15.525 50.072 15.5583 50.072 15.575C50.072 15.6917 49.8886 15.825 49.522 15.975C48.8386 16.225 48.122 16.35 47.372 16.35C46.6386 16.35 45.922 16.0833 45.222 15.55C44.272 14.8167 43.797 13.8417 43.797 12.625C43.797 11.875 43.9886 11.1333 44.372 10.4C45.0553 9.1 46.6553 7.31667 49.172 5.05C48.5553 4.43333 48.247 3.775 48.247 3.075C48.247 2.375 48.5053 1.78333 49.022 1.3C49.5553 0.816666 50.1803 0.575 50.897 0.575C51.547 0.575 52.1136 0.833333 52.597 1.35C52.9136 1.7 53.072 2.14167 53.072 2.675C53.072 3.20833 52.897 3.80833 52.547 4.475C54.3303 5.275 55.5386 5.9 56.172 6.35ZM50.747 3.525C51.147 3.10833 51.347 2.80833 51.347 2.625C51.347 2.20833 51.1636 1.98333 50.797 1.95C50.3803 1.95 50.172 2.18333 50.172 2.65C50.172 2.93333 50.3636 3.225 50.747 3.525Z" fill="#21A4E4"/>
</svg>
